<svg width="453" height="267" viewBox="0 0 453 267" fill="none" xmlns="http://www.w3.org/2000/svg">
<path d="M113.5 213.618H99.1554V244H59.9275V213.618H0.5V178.562L54.3653 36H92.1295L40.899 178.562H59.9275V153.438H99.1554V178.562H113.5V213.618Z" fill="#383838"/>
<path d="M253.54 43.5437C266.252 33.771 280.874 25.7739 296.875 23.2517C307.825 21.7788 319.272 22.9222 329.462 27.3074C338.885 31.3766 346.781 39.2458 350.09 49.0521C353.749 59.8404 353.063 72.2564 347.548 82.2981C342.934 90.6314 334.876 96.7048 325.937 99.7517C313.057 104.13 298.799 104.049 285.851 99.9803C272.084 95.6422 259.419 88.1159 248.556 78.6728C245.846 76.4398 243.821 73.5208 241.151 71.2542C240.183 72.068 238.548 72.5994 238.595 74.1127C238.434 77.6707 238.723 81.2421 238.69 84.8068C238.77 85.8762 238.569 87.0802 239.207 88.0352C241.588 88.4724 244.03 87.968 246.418 88.3581C248.193 88.654 249.586 90.3355 249.599 92.1313C249.774 96.2139 249.579 100.31 249.693 104.399C258.874 107.54 267.833 111.623 275.547 117.609C291.602 129.621 302.942 147.788 306.527 167.535C308.161 176.81 308.585 186.468 306.392 195.689C304.838 203.72 302.128 211.535 298.489 218.846C294.077 227.341 288.306 235.634 279.939 240.625C276.173 242.898 271.794 244.068 267.396 244.055C240.459 244.082 213.521 244.055 186.584 244.068C182.354 244.169 178.137 243.019 174.545 240.793C167.517 236.509 162.324 229.85 158.073 222.929C155.08 217.474 152.175 211.939 150.265 206C144.151 190.712 144.467 173.433 149.431 157.883C157.387 132.258 178.924 111.334 204.859 104.345C206.298 103.861 208.006 103.693 209.103 102.536C209.567 98.884 208.968 95.1781 209.398 91.5259C209.62 89.8243 211.147 88.432 212.842 88.3043C215.25 88.089 217.678 88.3446 220.086 88.0218C220.207 84.531 220.288 81.0336 220.173 77.5362C216.703 77.1057 212.674 76.9308 210.199 74.0925C207.717 71.0726 208.161 66.9093 208.06 63.2572C208.181 59.8001 207.737 56.1076 209.304 52.8993C210.576 50.3031 213.461 49.079 216.171 48.6351C225.029 47.337 234.318 49.4422 241.636 54.6211C245.415 50.7269 249.189 46.8192 253.54 43.5437Z" fill="#F62559"/>
<path d="M179.534 46.1735C181.283 45.6354 183.099 46.2273 184.632 47.0949C187.646 48.7764 190.618 50.5318 193.638 52.2066C195.306 53.1684 197.176 54.1974 197.916 56.0941C199.342 59.1947 197.284 63.2504 193.894 63.8289C190.786 64.5149 188.264 62.1541 185.688 60.856C182.769 59.0199 179.46 57.7352 176.871 55.4215C174.005 52.563 175.6 47.0882 179.534 46.1735Z" fill="#F62559"/>
<path d="M190.246 71.1197C193.071 69.6265 196.851 71.1533 197.961 74.106C199.118 76.756 197.766 79.9507 195.284 81.2825C191.437 83.5289 187.576 85.7619 183.655 87.8805C180.803 89.5284 176.707 87.9612 175.759 84.7934C174.622 82.0358 176.189 78.8813 178.745 77.59C182.572 75.4242 186.339 73.1307 190.246 71.1197Z" fill="#F62559"/>
<circle cx="200" cy="160" r="11" fill="white"/>
<circle cx="251" cy="160" r="11" fill="white"/>
<path d="M193 208.5V208.5C212.773 193.931 239.727 193.931 259.5 208.5V208.5" stroke="white" stroke-width="8" stroke-linecap="round"/>
<path d="M452.5 213.618H438.155V244H398.927V213.618H339.5V178.562L393.365 36H431.13L379.899 178.562H398.927V153.438H438.155V178.562H452.5V213.618Z" fill="#383838"/>
</svg>
