<svg width="201" height="80" viewBox="0 0 201 80" fill="none" xmlns="http://www.w3.org/2000/svg">
<path d="M64.8352 33.0946C66.6191 31.7293 68.9557 31.0277 71.2567 31.1202C73.1994 31.1996 75.1319 31.753 76.7303 32.7983C75.8041 33.9076 74.8499 34.9979 73.9122 36.0989C72.9275 35.4684 71.7052 35.2018 70.521 35.2682C69.1513 35.3582 67.8706 36.1001 67.1349 37.1762C65.6547 39.2087 65.9838 42.3043 68.1006 43.8462C69.0497 44.5668 70.3304 44.837 71.5324 44.6995C72.4802 44.626 73.4205 44.3771 74.2298 43.9007C74.2285 43.1778 74.2285 42.456 74.2285 41.7331C72.958 41.7319 71.6874 41.7343 70.4168 41.7319C70.4181 40.4946 70.4156 39.2573 70.4181 38.0189C73.1282 38.02 75.8384 38.0189 78.5485 38.02C78.5498 40.6866 78.5485 43.3532 78.5485 46.0186C77.0276 47.5794 74.8829 48.5382 72.6632 48.851C70.6316 49.1414 68.4906 48.9352 66.6381 48.0736C64.4108 47.0674 62.6447 45.202 61.871 43.0071C61.1937 41.1583 61.1861 39.1104 61.8087 37.2473C62.3601 35.6308 63.4172 34.16 64.8352 33.0946Z" fill="#383838"/>
<path d="M89.3571 31.2447C91.7102 30.8619 94.2234 31.3241 96.2182 32.5602C97.8343 33.5284 99.0922 34.9909 99.8063 36.6513C100.63 38.6044 100.715 40.8218 100.036 42.8235C99.3184 45.0101 97.6285 46.898 95.4545 47.954C92.0799 49.6475 87.6164 49.2019 84.7474 46.8162C83.1249 45.5185 82.0221 43.6804 81.6523 41.7189C81.2356 39.4802 81.6599 37.0803 82.9979 35.1639C84.3942 33.0923 86.7753 31.6476 89.3571 31.2447ZM90.2566 35.4211C88.9174 35.6084 87.7193 36.4249 87.0662 37.5235C85.8338 39.5217 86.2391 42.3613 88.211 43.8249C89.3151 44.6676 90.8767 44.9425 92.24 44.5645C93.4064 44.2694 94.3962 43.4777 94.9641 42.4917C96.1152 40.5433 95.7404 37.853 93.9108 36.3728C92.9236 35.5681 91.5475 35.2161 90.2566 35.4211Z" fill="#383838"/>
<path d="M137.356 31.2068C139.579 30.901 141.92 31.362 143.819 32.4867C145.367 33.4029 146.622 34.7468 147.367 36.31C148.865 39.4008 148.348 43.281 145.964 45.867C144.745 47.2133 143.08 48.2005 141.256 48.6615C139.394 49.1261 137.379 49.0775 135.555 48.4838C133.308 47.7715 131.379 46.2249 130.298 44.254C129.299 42.4715 128.985 40.3762 129.365 38.4006C129.758 36.259 131.039 34.2787 132.885 32.9537C134.174 32.0151 135.737 31.4166 137.356 31.2068ZM138.03 35.4128C136.593 35.5977 135.31 36.5008 134.681 37.7132C133.603 39.6284 133.988 42.2227 135.742 43.6804C136.748 44.5278 138.187 44.8999 139.518 44.6605C141.029 44.4247 142.324 43.3829 142.901 42.0722C143.763 40.2103 143.354 37.84 141.728 36.4487C140.748 35.6025 139.346 35.222 138.03 35.4128Z" fill="#383838"/>
<path d="M154.267 31.6843C155.567 31.1178 157.043 31.0444 158.447 31.2186C160.047 31.4224 161.616 31.9463 162.931 32.8316C162.047 33.9148 161.206 35.0288 160.327 36.1156C159.252 35.3891 157.852 35.1201 156.557 35.3749C156.033 35.4981 155.426 35.7363 155.254 36.259C155.139 36.6607 155.486 36.9736 155.806 37.1798C156.505 37.5994 157.292 37.8613 158.051 38.1718C159.458 38.7264 160.881 39.3166 162.056 40.2494C162.748 40.8182 163.351 41.5234 163.615 42.3601C164.137 43.8759 163.703 45.6086 162.598 46.8079C161.346 48.1685 159.431 48.8807 157.538 48.9791C154.923 49.0964 152.186 48.3545 150.251 46.6621C151.163 45.5209 152.069 44.376 152.983 43.2371C154.11 44.2824 155.713 44.9093 157.312 44.8133C157.958 44.7991 158.67 44.459 158.84 43.8368C158.933 43.3852 158.561 42.9918 158.174 42.7737C157.143 42.1408 155.947 41.8019 154.856 41.2757C153.624 40.7234 152.396 40.0431 151.576 38.9967C150.702 37.9016 150.5 36.4142 150.917 35.1201C151.381 33.5675 152.703 32.3196 154.267 31.6843Z" fill="#383838"/>
<path d="M167.266 33.986C168.279 32.3813 170.182 31.3562 172.149 31.1689C174.466 30.9971 176.853 31.579 178.762 32.8222C177.888 33.9208 177.028 35.0289 176.151 36.1252C175.08 35.3667 173.646 35.1237 172.342 35.3821C171.773 35.5208 171.11 35.8301 171.046 36.4452C171.124 36.9406 171.639 37.1989 172.069 37.4111C173.874 38.2501 175.854 38.8001 177.482 39.9449C178.443 40.6133 179.268 41.5354 179.533 42.6482C179.859 44.0005 179.537 45.4902 178.614 46.5852C177.185 48.3369 174.705 49.0966 172.411 48.9863C170.107 48.901 167.762 48.1556 166.084 46.6433C167.002 45.521 167.903 44.3868 168.79 43.2443C169.934 44.2292 171.464 44.8976 173.046 44.817C173.662 44.8158 174.356 44.5658 174.614 44.004C174.797 43.6591 174.62 43.2526 174.336 43.0097C173.972 42.7075 173.535 42.4977 173.103 42.2974C171.633 41.6598 170.087 41.1348 168.767 40.2376C167.945 39.6652 167.196 38.9387 166.838 38.025C166.32 36.7106 166.501 35.1866 167.266 33.986Z" fill="#383838"/>
<path d="M21.3309 31.5408C22.9826 31.5408 24.6344 31.5408 26.2861 31.5408C26.2861 33.661 26.2848 35.7812 26.2874 37.9014C28.4042 37.9002 30.5209 37.9002 32.6377 37.9014C32.6402 35.7812 32.6377 33.661 32.639 31.5408C34.2907 31.5408 35.9425 31.5408 37.5942 31.5408C37.5942 37.2164 37.5955 42.8921 37.5929 48.5677C35.9425 48.5665 34.2907 48.5665 32.6402 48.5677C32.6377 46.2899 32.6402 44.0108 32.639 41.733C30.5209 41.733 28.4042 41.733 26.2861 41.733C26.2848 44.0108 26.2874 46.2899 26.2848 48.5677C24.6344 48.5665 22.9826 48.5665 21.3322 48.5677C21.3296 42.8921 21.3309 37.2164 21.3309 31.5408Z" fill="#383838"/>
<path d="M41.9142 31.5408C43.566 31.5408 45.2177 31.5408 46.8695 31.5408C46.8682 34.858 46.8708 38.1752 46.8682 41.4936C46.8631 42.2082 46.9915 42.9667 47.4743 43.5462C48.4628 44.8096 50.5452 45.0632 51.906 44.1874C52.7395 43.6873 53.2236 42.7664 53.2236 41.8527C53.2211 38.4146 53.2223 34.9777 53.2223 31.5408C54.8741 31.5408 56.5258 31.5408 58.1776 31.5408C58.1788 34.858 58.175 38.1752 58.1788 41.4924C58.1712 43.5119 57.3708 45.5693 55.7686 46.963C52.8399 49.5146 47.9304 49.6391 44.7997 47.3363C43.3424 46.2851 42.3818 44.6935 42.0629 43.0094C41.8558 42.1217 41.9244 41.2103 41.9142 40.3096C41.9142 37.3859 41.9142 34.4633 41.9142 31.5408Z" fill="#383838"/>
<path d="M111.796 31.5408C114.718 31.5408 117.64 31.5408 120.564 31.5408C122.218 31.5787 123.808 32.4593 124.649 33.7878C125.731 35.434 125.579 37.6976 124.241 39.1826C125.086 39.6697 125.819 40.3547 126.231 41.2068C127.032 42.8008 126.841 44.7776 125.794 46.2353C124.717 47.8175 122.677 48.6815 120.694 48.5689C117.728 48.5665 114.763 48.5677 111.797 48.5677C111.794 42.8921 111.796 37.2164 111.796 31.5408ZM116.454 35.255C116.455 36.2422 116.454 37.2294 116.455 38.2167C117.4 38.2167 118.347 38.2167 119.292 38.2179C120.118 38.2439 120.866 37.521 120.822 36.753C120.875 35.9981 120.175 35.3012 119.372 35.2621C118.4 35.242 117.427 35.2597 116.454 35.255ZM116.454 41.5362C116.455 42.6029 116.454 43.6683 116.455 44.7349C117.658 44.7349 118.86 44.7361 120.063 44.7349C120.541 44.7456 121.021 44.5797 121.357 44.2573C121.913 43.7667 121.995 42.9063 121.61 42.3042C121.324 41.8396 120.763 41.5291 120.188 41.5351C118.943 41.5362 117.699 41.5339 116.454 41.5362Z" fill="#383838"/>
</svg>
