<svg width="90" height="90" viewBox="0 0 90 90" fill="none" xmlns="http://www.w3.org/2000/svg">
<path fill-rule="evenodd" clip-rule="evenodd" d="M80.7539 31.7624V23.7148H49.4993H7.51953C6.12808 23.7148 5 24.8429 5 26.2344V71.5859C5 72.9774 6.12808 74.1055 7.51953 74.1055H78.2344C79.6258 74.1055 80.7539 72.9774 80.7539 71.5859V31.7624Z" fill="#EB6666"/>
<path d="M22.8047 58.9883H17.7656C16.373 58.9883 15.2461 60.1152 15.2461 61.5078C15.2461 62.9004 16.373 64.0273 17.7656 64.0273H22.8047C24.1973 64.0273 25.3242 62.9004 25.3242 61.5078C25.3242 60.1152 24.1973 58.9883 22.8047 58.9883ZM37.9219 58.9883H32.8828C31.4902 58.9883 30.3633 60.1152 30.3633 61.5078C30.3633 62.9004 31.4902 64.0273 32.8828 64.0273H37.9219C39.3145 64.0273 40.4414 62.9004 40.4414 61.5078C40.4414 60.1152 39.3145 58.9883 37.9219 58.9883ZM37.9219 33.793H17.7656C16.373 33.793 15.2461 34.9199 15.2461 36.3125V41.3516C15.2461 42.7442 16.373 43.8711 17.7656 43.8711H37.9219C39.3145 43.8711 40.4414 42.7442 40.4414 41.3516V36.3125C40.4414 34.9199 39.3145 33.793 37.9219 33.793ZM53.0391 58.9883H48C46.6074 58.9883 45.4805 60.1152 45.4805 61.5078C45.4805 62.9004 46.6074 64.0273 48 64.0273H53.0391C54.4317 64.0273 55.5586 62.9004 55.5586 61.5078C55.5586 60.1152 54.4317 58.9883 53.0391 58.9883ZM68.1562 58.9883H63.1172C61.7246 58.9883 60.5977 60.1152 60.5977 61.5078C60.5977 62.9004 61.7246 64.0273 63.1172 64.0273H68.1562C69.5489 64.0273 70.6758 62.9004 70.6758 61.5078C70.6758 60.1152 69.5489 58.9883 68.1562 58.9883Z" fill="#FBE0E0"/>
<path d="M71.4465 16C63.4803 16 57 22.5043 57 30.5C57 38.4957 63.4803 45 71.4465 45C79.4127 45 86 38.4957 86 30.5C86 22.5043 79.4127 16 71.4465 16ZM77.121 33.9173C77.7479 34.5466 77.7479 35.5662 77.121 36.1955C76.494 36.8248 75.4781 36.8248 74.8512 36.1955L71.4465 32.7782L68.0418 36.1955C67.4149 36.8248 66.399 36.8248 65.772 36.1955C65.145 35.5662 65.145 34.5466 65.772 33.9173L69.1767 30.5L65.772 27.0827C65.145 26.4534 65.145 25.4338 65.772 24.8045C66.399 24.1752 67.4149 24.1752 68.0418 24.8045L71.4465 28.2218L74.8512 24.8045C75.4781 24.1752 76.494 24.1752 77.121 24.8045C77.7479 25.4338 77.7479 26.4534 77.121 27.0827L73.7163 30.5L77.121 33.9173Z" fill="#FBE0E0"/>
</svg>
