<svg width="24" height="22" viewBox="0 0 24 22" fill="none" xmlns="http://www.w3.org/2000/svg">
<path d="M23.8908 4.11635C23.8755 2.71769 23.4385 1.30809 22.2003 0.524491C20.9949 -0.239409 19.3921 -0.224087 18.4437 0.938178C18.3668 1.0323 18.2021 1.19208 18.2504 1.32998C18.2987 1.46788 18.5973 1.43723 18.7225 1.49852C18.8207 1.55118 18.9011 1.63168 18.9535 1.72985C19.0058 1.82803 19.0278 1.93947 19.0167 2.0501C19.0167 2.31495 19.0167 4.86712 18.9969 8.38237L9.68778 8.32765C9.55143 6.60724 9.65413 4.8763 9.99296 3.18391C10.0676 2.81181 10.1532 2.44409 10.2498 2.07637C10.3552 1.67362 10.6472 1.17895 10.6165 0.763072C10.6151 0.706124 10.5959 0.651034 10.5616 0.60548C10.4782 0.502605 10.3201 0.520114 10.1906 0.552947C9.38691 0.765397 8.64509 1.16442 8.02574 1.7174C7.57202 2.13505 7.18874 2.62284 6.89064 3.16202C5.69626 5.29613 5.60405 8.31671 5.60405 8.31671C5.54257 10.2691 5.46573 14.2265 7.5515 18.335C7.5515 18.335 9.01594 21.2154 11.1061 21.9246C11.5189 22.0669 11.6308 21.9728 11.6682 21.9246C11.8306 21.7167 11.4815 21.3577 11.3784 21.2001C11.1893 20.9051 11.0241 20.5955 10.8844 20.2743C10.6019 19.6077 10.3921 18.9127 10.2586 18.2014C9.79189 16.0554 9.57092 13.8635 9.59996 11.6678H18.9991V19.935C18.983 20.2032 19.043 20.4706 19.1723 20.7063C19.3016 20.9421 19.495 21.1368 19.7303 21.268C20.0438 21.4089 20.3797 21.494 20.7226 21.5197C21.3162 21.6127 21.9207 21.6127 22.5142 21.5197C22.8646 21.4651 23.1925 21.3134 23.4605 21.0819C23.8755 20.6989 23.882 20.1801 23.882 19.657C23.882 15.4982 23.9194 11.3504 23.915 7.19822C23.9121 6.17968 23.904 5.1524 23.8908 4.11635Z" fill="white"/>
<path d="M10.732 20.8674C6.90579 19.8122 5.41475 15.9884 4.59502 12.6724C4.41778 11.9494 4.24718 11.2369 4.15192 10.4993C3.84618 8.26984 3.85947 5.81887 4.62603 3.66669C4.04336 3.79206 3.7775 4.26637 3.43631 4.65084C2.19119 6.05498 2.0915 7.69523 2.03168 9.32504C1.92773 11.7968 2.50076 14.2522 3.69552 16.4544C4.18938 17.3287 4.79181 18.1444 5.49008 18.8845C6.18845 19.6134 6.98202 20.2558 7.85181 20.7964C6.44609 20.4731 5.17848 19.7528 4.21838 18.7319C3.82422 18.2595 3.4666 17.7609 3.14829 17.24C2.54124 16.2454 1.78354 15.0064 1.39583 13.3452C1.28727 12.8793 1.21416 12.4049 1.01919 12.3861C0.740037 12.359 0.421004 13.3034 0.354539 13.5061C0.17975 14.0203 0.0878874 14.5563 0.0820312 15.0962C0.0975398 16.3499 1.0923 18.7884 3.47619 20.4432C3.47619 20.4432 5.55876 21.8892 9.12129 21.9999C9.70502 22.0042 10.2776 21.8489 10.7696 21.5528C11.0842 21.348 11.2925 21.022 10.732 20.8674Z" fill="white"/>
</svg>
