<svg width="82" height="26" viewBox="0 0 82 26" fill="none" xmlns="http://www.w3.org/2000/svg">
<path d="M29.3769 22.5528C29.5605 22.0724 30.1023 21.8429 30.5957 22.0055C31.076 22.1638 31.5667 22.2803 32.0811 22.2803C32.7903 22.2803 33.3982 22.1503 33.9048 21.8904C34.887 21.443 35.2508 20.3058 35.6677 19.4006L30.7344 6.41742C30.5624 5.96487 30.9014 5.48212 31.3912 5.48212H34.3281C34.7291 5.48212 35.0855 5.73446 35.214 6.10938L37.7953 13.6413L40.3767 6.10938C40.5051 5.73446 40.8615 5.48212 41.2626 5.48212H44.0122C44.5033 5.48212 44.8424 5.9673 44.6679 6.42032L39.1023 20.8705C38.4539 22.5103 37.6028 23.7702 36.5491 24.6501C35.4955 25.55 34.1074 25.9999 32.3851 25.9999C31.3698 25.9999 30.3766 25.8168 29.4232 25.4979C28.839 25.3025 28.5728 24.6566 28.7905 24.087L29.3769 22.5528Z" fill="#1B9684"/>
<path d="M24.7677 18.1708C23.6948 19.2296 22.3326 19.5272 20.8008 19.5206C18.0786 19.509 15.8155 18.1924 14.9198 15.651C14.2435 13.7322 14.2292 11.4186 14.9198 9.50169C15.8272 6.98298 18.0763 5.48212 20.8164 5.48212C22.2883 5.48212 23.6632 5.68781 24.7677 6.652V6.4051C24.7677 5.89536 25.1864 5.48212 25.7029 5.48212H29.0323V19.5206H25.7029C25.1864 19.5206 24.7677 19.1074 24.7677 18.5976V18.1708ZM24.1902 15.1411C24.7373 14.4412 25.0108 13.5613 25.0108 12.5014C25.0108 11.3015 24.7069 10.3916 24.099 9.77167C22.9092 8.51651 20.6304 8.4964 19.5398 9.89165C18.4281 11.3264 18.4565 13.7464 19.5702 15.1711C20.6851 16.5566 23.0958 16.5411 24.1902 15.1411Z" fill="#1B9684"/>
<path d="M6.92999 0.0827026H2.99271C1.94516 0.0827026 1.42139 0.0827026 1.02128 0.2839C0.669333 0.460878 0.383191 0.743273 0.203866 1.09061C0 1.48548 0 2.0024 0 3.03623V3.68232H6.56525C7.53788 3.68232 8.28761 3.93229 8.81446 4.43224C8.88284 4.49223 8.94696 4.55441 9.0068 4.61878C9.42567 5.06936 9.63511 5.62711 9.63511 6.29204C9.63511 6.34203 9.63412 6.39152 9.63214 6.4405C9.60246 7.17519 9.35016 7.79563 8.87524 8.30182C8.81446 8.36932 8.74939 8.43259 8.68005 8.49165C8.19469 8.90504 7.49989 9.11174 6.59564 9.11174H0V16.5671C0 17.6009 0 18.1178 0.203866 18.5127C0.383191 18.8601 0.669333 19.1424 1.02128 19.3194C1.42139 19.5206 1.94516 19.5206 2.99271 19.5206H4.0612V12.5614H7.02117C8.03433 12.5614 8.9563 12.4214 9.78708 12.1414C10.6381 11.8614 11.3676 11.4515 11.9755 10.9115C12.5834 10.3516 13.0494 9.66168 13.3737 8.84177C13.7181 8.00185 13.8904 7.04196 13.8904 5.96207C13.8904 5.06217 13.7283 4.25226 13.4041 3.53233C13.0798 2.81241 12.6138 2.20248 12.0059 1.70253C11.398 1.18258 10.6584 0.782628 9.78708 0.502658C8.93603 0.222688 7.98367 0.0827026 6.92999 0.0827026Z" fill="#1B9684"/>
<path d="M67.9753 6.44594C67.7783 5.98934 68.1178 5.48249 68.6207 5.48249H71.5969C71.9845 5.48249 72.3319 5.71837 72.4704 6.07557L75.0671 12.7717L77.6347 6.07867C77.7724 5.71985 78.1206 5.48249 78.5093 5.48249H81.2966C81.8006 5.48249 82.1401 5.99134 81.941 6.44822L76.435 19.0827C76.2874 19.4214 75.9496 19.641 75.5759 19.641H74.2872C73.9123 19.641 73.5736 19.42 73.4267 19.0796L67.9753 6.44594Z" fill="#334055"/>
<path d="M60.4984 16.1914C61.0253 16.1914 61.4812 16.0914 61.8662 15.8914C62.2715 15.6914 62.6058 15.4314 62.8692 15.1115C63.1529 14.7715 63.3555 14.3815 63.4771 13.9416C63.619 13.4816 63.6899 13.0017 63.6899 12.5017C63.6899 12.0018 63.619 11.5319 63.4771 11.0919C63.3555 10.6319 63.1529 10.242 62.8692 9.92202C62.6058 9.58206 62.2715 9.31209 61.8662 9.11211C61.4812 8.91213 61.0253 8.81214 60.4984 8.81214C59.9716 8.81214 59.5055 8.91213 59.1003 9.11211C58.7153 9.31209 58.3809 9.58206 58.0973 9.92202C57.8338 10.242 57.6312 10.6319 57.4894 11.0919C57.3475 11.5319 57.2766 12.0018 57.2766 12.5017C57.2766 13.0017 57.3475 13.4816 57.4894 13.9416C57.6312 14.3815 57.8338 14.7715 58.0973 15.1115C58.3809 15.4314 58.7153 15.6914 59.1003 15.8914C59.5055 16.0914 59.9716 16.1914 60.4984 16.1914ZM60.4984 19.9709C59.3434 19.9709 58.2999 19.781 57.3678 19.401C56.4559 19.0011 55.6657 18.4711 54.997 17.8112C54.3486 17.1313 53.8521 16.3413 53.5077 15.4414C53.1632 14.5215 52.9909 13.5416 52.9909 12.5017C52.9909 11.4619 53.1632 10.492 53.5077 9.59206C53.8521 8.69215 54.3486 7.90224 54.997 7.22231C55.6657 6.54238 56.4559 6.01244 57.3678 5.63248C58.2999 5.23252 59.3434 5.03255 60.4984 5.03255C61.6534 5.03255 62.6869 5.23252 63.5987 5.63248C64.5308 6.01244 65.3211 6.54238 65.9695 7.22231C66.6382 7.90224 67.1447 8.69215 67.4892 9.59206C67.8337 10.492 68.0059 11.4619 68.0059 12.5017C68.0059 13.5416 67.8337 14.5215 67.4892 15.4414C67.1447 16.3413 66.6382 17.1313 65.9695 17.8112C65.3211 18.4711 64.5308 19.0011 63.5987 19.401C62.6869 19.781 61.6534 19.9709 60.4984 19.9709Z" fill="#334055"/>
<path d="M46.5898 1.84595C46.5898 0.826461 47.4273 0 48.4603 0H51.0883V19.521H48.4603C47.4273 19.521 46.5898 18.6945 46.5898 17.675V1.84595Z" fill="#334055"/>
<ellipse cx="6.74914" cy="6.40952" rx="1.2882" ry="1.27133" fill="#FA8231"/>
</svg>
