<svg width="19" height="23" viewBox="0 0 19 23" fill="none" xmlns="http://www.w3.org/2000/svg">
<path d="M15.769 12.3007C15.7797 11.466 16.0014 10.6477 16.4135 9.9217C16.8255 9.19575 17.4145 8.58581 18.1256 8.14864C17.6738 7.50348 17.0779 6.97253 16.385 6.59798C15.6922 6.22343 14.9216 6.01559 14.1344 5.99096C12.4552 5.8147 10.8272 6.99579 9.97149 6.99579C9.09922 6.99579 7.78172 6.00846 6.36299 6.03765C5.44532 6.06729 4.55097 6.33415 3.76709 6.81221C2.98322 7.29026 2.33654 7.96322 1.89007 8.76551C-0.0439277 12.1139 1.39866 17.035 3.25127 19.7416C4.17817 21.0669 5.26145 22.5474 6.6789 22.4949C8.06596 22.4374 8.584 21.6104 10.2583 21.6104C11.9171 21.6104 12.4031 22.4949 13.8493 22.4615C15.3377 22.4374 16.2754 21.1303 17.1698 19.7924C17.8358 18.848 18.3483 17.8043 18.6882 16.6999C17.8235 16.3341 17.0856 15.722 16.5665 14.9397C16.0474 14.1574 15.77 13.2396 15.769 12.3007Z" fill="white"/>
<path d="M13.0376 4.21096C13.8491 3.23675 14.2489 1.98457 14.1521 0.720337C12.9123 0.850557 11.767 1.44312 10.9445 2.37995C10.5424 2.83761 10.2344 3.37005 10.0381 3.94682C9.84188 4.52359 9.76124 5.13338 9.8008 5.74134C10.4209 5.74772 11.0344 5.61331 11.5951 5.34822C12.1558 5.08313 12.649 4.69428 13.0376 4.21096Z" fill="white"/>
</svg>
