<svg width="177" height="138" viewBox="0 0 177 138" fill="none" xmlns="http://www.w3.org/2000/svg">
<path d="M88.7907 136.253C126.434 136.253 156.902 106.066 156.902 68.822C156.902 31.5777 126.434 1.5 88.7907 1.5C51.2579 1.5 20.6797 31.6863 20.6797 68.9306C20.6797 106.175 51.2579 136.253 88.7907 136.253Z" fill="#F1F3FA" stroke="#D6DDE8" stroke-width="2.25" stroke-miterlimit="10"/>
<path d="M122.349 136.362C111.972 136.687 99.4977 136.362 90.6665 136.253C81.9456 136.579 69.3611 136.687 58.9844 136.362C69.2507 130.607 72.8936 119.857 73.3352 112.799H107.777C108.55 119.748 112.193 130.607 122.349 136.362Z" fill="#F1F3FA" stroke="#D6DDE8" stroke-width="2.25" stroke-miterlimit="10"/>
<path d="M155.686 22.891V111.604C155.686 113.884 153.92 115.513 151.933 115.513H30.0619C27.9645 115.513 26.3086 113.776 26.3086 111.604V22.891C26.3086 20.8279 28.0748 18.9819 30.0619 18.9819H151.712C154.031 19.0905 155.686 20.8279 155.686 22.891Z" fill="white" stroke="#D6DDE8" stroke-width="2.25" stroke-miterlimit="10"/>
<path d="M155.686 22.891V99.2254H26.3086V22.891C26.3086 20.8279 28.0748 18.9819 30.0619 18.9819H151.712C154.031 19.0905 155.686 20.8279 155.686 22.891Z" fill="white" stroke="#D6DDE8" stroke-width="2.25" stroke-miterlimit="10"/>
<rect x="35.6484" y="29.2632" width="37.2776" height="27.9745" fill="#F1F3FA"/>
<rect x="81.8008" y="29.2632" width="62.1294" height="11.3647" fill="#F1F3FA"/>
<rect x="81.8008" y="63.3569" width="62.1294" height="11.3647" fill="#F1F3FA"/>
<rect x="81.8008" y="44.9985" width="62.1294" height="5.24522" fill="#F1F3FA"/>
<rect x="81.8008" y="79.0928" width="62.1294" height="5.24523" fill="#F1F3FA"/>
<rect x="35.6484" y="63.3569" width="37.2776" height="27.9745" fill="#F1F3FA"/>
<path d="M90.7795 110.192C92.5457 110.192 93.9808 108.889 93.9808 107.043C93.9808 105.306 92.6561 103.895 90.7795 103.895C89.0132 103.895 87.5781 105.198 87.5781 107.043C87.5781 108.781 88.9028 110.192 90.7795 110.192Z" fill="#D6DDE8"/>
<path d="M1.25 136.578H175.667" stroke="#D6DDE8" stroke-width="2.25" stroke-miterlimit="10" stroke-linecap="round" stroke-linejoin="round"/>
<path d="M12.5104 60.7867C15.0494 60.7867 17.0364 58.8322 17.0364 56.3348C17.0364 53.8373 15.0494 51.8828 12.5104 51.8828C9.97141 51.8828 7.98438 53.8373 7.98438 56.3348C7.98438 58.8322 10.0818 60.7867 12.5104 60.7867Z" fill="#F1F3FA"/>
<path d="M7.98156 46.3449C9.63742 46.3449 11.0725 44.9333 11.0725 43.3045C11.0725 41.6758 9.63742 40.2642 7.98156 40.2642C6.3257 40.2642 4.89062 41.6758 4.89062 43.3045C4.89063 45.0419 6.3257 46.3449 7.98156 46.3449Z" fill="#F1F3FA"/>
<path d="M169.928 71.9705C173.129 71.9705 175.668 69.473 175.668 66.3241C175.668 63.1752 173.129 60.6777 169.928 60.6777C166.726 60.6777 164.188 63.1752 164.188 66.3241C164.187 69.473 166.726 71.9705 169.928 71.9705Z" fill="#F1F3FA"/>
<path d="M119.08 60.2976C119.08 64.0764 118.441 67.5403 117.002 70.8467C113.805 79.0342 106.931 85.3322 98.4585 88.1663C95.5811 89.111 92.5438 89.5834 89.3466 89.5834C72.8814 89.5834 59.6133 76.515 59.6133 60.2976C59.6133 44.0801 72.8814 31.0117 89.3466 31.0117C105.812 31.0117 119.08 44.2376 119.08 60.2976Z" fill="#D6DCE8" stroke="#AAB2C5" stroke-width="2.25" stroke-miterlimit="10"/>
<path d="M96.0071 56.6008V50.7996C96.0071 47.6354 93.2612 44.9985 89.9661 44.9985C88.3185 44.9985 86.854 45.7017 85.5725 46.7564C84.4742 47.8112 83.7419 49.2175 83.7419 50.9754V56.7765C82.0943 57.8313 80.8129 59.0618 79.7145 60.8197C78.7992 62.4018 78.25 64.3356 78.25 66.2693C78.25 72.4219 83.3758 77.3441 89.783 77.3441C96.1902 77.3441 101.316 72.4219 101.316 66.2693C101.499 62.0503 99.3023 58.5345 96.0071 56.6008ZM91.2475 67.324V70.3124C91.2475 70.664 90.8814 71.0156 90.5152 71.0156H89.2338C88.8677 71.0156 88.5016 70.664 88.5016 70.3124V68.3787V67.324C87.4032 66.7966 86.854 65.5661 87.037 64.3355C87.2201 63.2808 88.1354 62.4018 89.2338 62.2261C91.0644 61.8745 92.712 63.2808 92.712 64.8629C92.712 65.9177 92.1628 66.7966 91.2475 67.324ZM93.0781 55.3702C91.9798 55.0186 91.0644 54.8428 89.783 54.8428C88.6846 54.8428 87.5862 55.0186 86.4879 55.3702V50.9754C86.4879 50.0965 86.854 49.2175 87.4032 48.6902C87.9524 48.1628 88.8677 47.8112 89.783 47.8112C91.6136 47.8112 93.0781 49.2175 93.0781 50.9754V55.3702Z" fill="white" stroke="#AAB2C5" stroke-width="2.25" stroke-miterlimit="10"/>
</svg>
