<svg width="24" height="26" viewBox="0 0 24 26" fill="none" xmlns="http://www.w3.org/2000/svg">
<path fill-rule="evenodd" clip-rule="evenodd" d="M1.39101 0.533641C1.10292 0.845361 0.936523 1.32167 0.936523 1.94511V24.0573C0.936523 24.6808 1.10292 25.1571 1.40094 25.4563L1.47793 25.5237L13.8161 13.1346V12.8578L1.468 0.466309L1.39101 0.533641Z" fill="url(#paint0_linear_57_28)"/>
<path fill-rule="evenodd" clip-rule="evenodd" d="M17.9214 17.2768L13.8062 13.1446V12.8553L17.9214 8.72314L18.0108 8.77801L22.8786 11.5561C24.2718 12.3441 24.2718 13.6458 22.8786 14.4438L18.0108 17.2219L17.9214 17.2768Z" fill="url(#paint1_linear_57_28)"/>
<path fill-rule="evenodd" clip-rule="evenodd" d="M18.0109 17.2219L13.8063 13L1.39111 25.4663C1.8456 25.9551 2.60805 26.01 3.4599 25.5337L18.0109 17.2219Z" fill="url(#paint2_linear_57_28)"/>
<path fill-rule="evenodd" clip-rule="evenodd" d="M18.0109 8.77807L3.4599 0.478816C2.60805 -0.00996179 1.84312 0.0573702 1.39111 0.546148L13.8063 13L18.0109 8.77807Z" fill="url(#paint3_linear_57_28)"/>
<path opacity="0.2" fill-rule="evenodd" clip-rule="evenodd" d="M17.9214 17.1322L3.46968 25.3766C2.66252 25.8429 1.94229 25.8105 1.47787 25.3865L1.40088 25.4638L1.47787 25.5312C1.94229 25.9526 2.66252 25.9875 3.46968 25.5212L18.0208 17.222L17.9214 17.1322Z" fill="black"/>
<path opacity="0.12" fill-rule="evenodd" clip-rule="evenodd" d="M22.8787 14.2993L17.9092 17.1322L17.9986 17.2219L22.8663 14.4439C23.5642 14.0449 23.9069 13.5212 23.9069 13C23.8647 13.4788 23.5095 13.9327 22.8787 14.2993Z" fill="black"/>
<path opacity="0.25" fill-rule="evenodd" clip-rule="evenodd" d="M3.4598 0.623417L22.8786 11.7007C23.5094 12.0573 23.8645 12.5237 23.9192 13C23.9192 12.4788 23.5764 11.9551 22.8786 11.5561L3.4598 0.478778C2.06653 -0.321721 0.936523 0.346609 0.936523 1.94511V2.08975C0.936523 0.488753 2.06653 -0.167107 3.4598 0.623417Z" fill="white"/>
<defs>
<linearGradient id="paint0_linear_57_28" x1="12.7094" y1="1.70654" x2="-7.06498" y2="6.95384" gradientUnits="userSpaceOnUse">
<stop stop-color="#00A0FF"/>
<stop offset="0.00657" stop-color="#00A1FF"/>
<stop offset="0.2601" stop-color="#00BEFF"/>
<stop offset="0.5122" stop-color="#00D2FF"/>
<stop offset="0.7604" stop-color="#00DFFF"/>
<stop offset="1" stop-color="#00E3FF"/>
</linearGradient>
<linearGradient id="paint1_linear_57_28" x1="24.6955" y1="13" x2="0.59777" y2="13" gradientUnits="userSpaceOnUse">
<stop stop-color="#FFE000"/>
<stop offset="0.4087" stop-color="#FFBD00"/>
<stop offset="0.7754" stop-color="#FFA500"/>
<stop offset="1" stop-color="#FF9C00"/>
</linearGradient>
<linearGradient id="paint2_linear_57_28" x1="15.7246" y1="15.2973" x2="-0.238153" y2="42.0538" gradientUnits="userSpaceOnUse">
<stop stop-color="#FF3A44"/>
<stop offset="1" stop-color="#C31162"/>
</linearGradient>
<linearGradient id="paint3_linear_57_28" x1="-1.73517" y1="-6.82119" x2="5.38649" y2="5.1287" gradientUnits="userSpaceOnUse">
<stop stop-color="#32A071"/>
<stop offset="0.0685" stop-color="#2DA771"/>
<stop offset="0.4762" stop-color="#15CF74"/>
<stop offset="0.8009" stop-color="#06E775"/>
<stop offset="1" stop-color="#00F076"/>
</linearGradient>
</defs>
</svg>
