<svg width="12" height="10" viewBox="0 0 12 10" fill="none" xmlns="http://www.w3.org/2000/svg">
<path d="M11.4735 1.34204L11.4738 1.34227C11.8419 1.69641 11.8423 2.27537 11.4737 2.62922L11.4735 1.34204ZM11.4735 1.34204C11.1102 0.993365 10.5262 0.993051 10.1632 1.34227L4.55449 6.73511L1.83673 4.12196L1.83655 4.12179C1.47319 3.77311 0.889213 3.7728 0.526227 4.12201C0.157924 4.47634 0.157924 5.05459 0.526227 5.40892L0.526282 5.40897L3.89926 8.65201L3.89944 8.65218C4.26279 9.00084 4.84672 9.00117 5.20971 8.65201C5.20973 8.65199 5.20975 8.65197 5.20976 8.65196L11.4735 2.6294L11.4735 1.34204Z" fill="white" stroke="white" stroke-width="0.5"/>
</svg>
