<svg width="32" height="18" viewBox="0 0 32 18" fill="none" xmlns="http://www.w3.org/2000/svg">
<g id="Group 1">
<g id="Vector">
<path d="M10.6157 4.31101C6.26087 3.21371 3.21751 5.82129 1.34554 2.88924C1.33993 2.87743 1.33433 2.87153 1.32872 2.85973C1.27828 2.77715 1.34554 2.65915 1.43521 2.68275C5.29125 3.65028 5.91899 3.04852 7.53875 3.255C9.03518 3.44378 10.6157 4.31101 10.6157 4.31101Z" fill="#383838"/>
<path d="M11.3836 5.04843C7.54996 4.45259 4.83167 7.46723 2.78034 5.14873C2.77474 5.14283 2.76913 5.13104 2.75792 5.12514C2.70188 5.06024 2.74111 4.94225 2.82518 4.94815C6.32814 5.21952 7.15202 4.57058 8.5925 4.50569C9.93754 4.44669 11.3836 5.04843 11.3836 5.04843Z" fill="#383838"/>
<path d="M12.0954 5.99828C8.7493 5.52042 7.31456 8.68255 4.60187 6.74752C4.59627 6.74162 4.59066 6.73572 4.57946 6.72392C4.52341 6.67083 4.54023 6.51745 4.61869 6.51745C7.58358 6.52334 8.35703 5.7977 9.60695 5.63842C11.2996 5.42602 12.0954 5.99828 12.0954 5.99828Z" fill="#383838"/>
<path d="M13.603 7.04252C11.8543 7.2372 12.1291 8.71208 10.2122 8.38171C9.96005 8.34041 10.0161 8.15162 10.1282 8.11623C11.7367 7.63247 11.7367 7.308 12.314 7.06611C12.8633 6.84784 13.603 7.04252 13.603 7.04252Z" fill="#383838"/>
<path d="M12.8128 6.58823C10.2907 6.64132 9.64615 8.54686 7.52194 7.92741C7.19686 7.83301 7.30896 7.57343 7.48271 7.54984C9.91519 7.14278 10.0328 6.76521 10.9352 6.54103C11.7815 6.32865 12.8128 6.58823 12.8128 6.58823Z" fill="#383838"/>
<path d="M11.3723 4.30514C11.3555 4.33464 11.3163 4.34053 11.2883 4.32874C10.767 4.01606 10.2795 3.65029 9.71904 3.24913C9.19214 2.87746 8.05997 2.3701 5.70599 2.48809C4.58505 2.54709 2.88122 2.78897 1.12133 1.52058C0.695373 1.2197 0.263808 0.706441 0.0396189 0.22859C0.0172015 0.187287 0.00599302 0.134189 0.000388678 0.081091C-0.00521566 0.0279928 0.0508274 -0.0132932 0.101282 0.00440082C4.45615 1.84505 5.70039 1.12531 8.44109 1.79195C9.5676 2.06924 10.9632 3.79189 11.3668 4.22254C11.3892 4.24025 11.3892 4.27564 11.3723 4.30514Z" fill="#383838"/>
<path d="M15.1612 14.3933C15.1107 14.5584 15.1219 14.7532 15.0211 14.8947C14.8977 15.0836 14.5951 15.1012 14.4493 14.9301C14.3541 14.8417 14.3541 14.7001 14.3204 14.5879C14.1019 13.5792 13.8889 12.5702 13.6759 11.5555C13.6536 11.4848 13.6759 11.4376 13.7431 11.4082C13.8497 11.3786 13.8609 11.5025 13.8944 11.5734C14.1354 12.2636 14.3596 12.9596 14.6063 13.6499C14.6847 13.886 14.9482 13.8092 15.1219 13.8683C15.3068 13.992 15.1948 14.2222 15.1612 14.3933Z" fill="#383838"/>
<path d="M15.4469 11.6087C15.4695 11.6736 15.4358 11.7503 15.3685 11.762C15.3293 11.768 15.2957 11.762 15.2845 11.7031C15.1219 11.3609 14.9818 11.0011 14.8136 10.6589C14.5951 10.4641 14.3653 10.2636 14.2308 9.98633C13.9898 9.53797 14.0122 8.95392 14.2812 8.52325C14.3036 8.49374 14.3204 8.45836 14.3429 8.42885C14.3821 8.36987 14.4662 8.38167 14.4885 8.45246C14.5054 8.50556 14.5166 8.55864 14.5391 8.60584C14.8417 9.60286 15.1332 10.6117 15.4469 11.6087Z" fill="#383838"/>
<path d="M15.4918 6.85957C15.4806 7.12505 15.3854 7.37283 15.3237 7.62651C15.318 7.6442 15.3125 7.656 15.2957 7.6619C15.2565 7.67961 15.2173 7.6501 15.2173 7.60882C15.2228 7.26074 15.3405 6.91857 15.2565 6.57639C15.1332 6.11033 14.8305 5.70327 14.8081 5.20771C14.7968 4.94814 14.8585 4.69446 14.909 4.44078C14.7296 4.04552 14.6455 3.59124 14.7407 3.16059C14.7576 3.10749 14.7632 3.10749 14.7913 3.14878C14.9651 3.41427 15.1948 3.67974 15.1948 4.02781C15.1724 4.52337 14.9145 5.01893 15.0883 5.51449C15.2284 5.95695 15.531 6.36991 15.4918 6.85957Z" fill="#383838"/>
<path d="M16.9714 5.14874C16.9603 5.79768 16.4222 6.31684 16.4839 6.97759C16.4839 7.23127 16.5455 7.49085 16.5174 7.74452C16.4782 7.9687 16.2372 8.0041 16.0636 8.0572C15.9627 8.1044 15.8506 7.98051 15.8786 7.87431C15.8786 7.10738 15.8786 6.33455 15.8786 5.56761C15.8898 5.24904 15.9627 4.91275 16.17 4.67089C16.2989 4.51159 16.4334 4.35231 16.5735 4.19302C16.6015 4.15762 16.6183 4.11633 16.6128 4.07503C16.6015 3.93344 16.5735 3.80955 16.6352 3.64436C16.7304 3.43788 16.8538 3.31399 16.9826 3.17831C17.0051 3.15471 17.0387 3.16651 17.0443 3.196C17.1341 3.61487 17.0443 4.06913 16.8594 4.4467C16.9042 4.67089 16.9714 4.90686 16.9714 5.14874Z" fill="#383838"/>
<path d="M24.0502 2.77717C23.288 3.00134 22.9349 3.27271 22.6323 3.52639C22.6323 3.52639 23.3217 3.27271 24.3136 3.16063C27.1273 2.83616 27.2897 3.93936 30.4396 2.65917C30.5461 2.64148 30.5741 2.72997 30.5461 2.77717C30.1257 3.5441 29.6605 4.39362 27.9007 4.47031C25.9839 4.55292 24.9863 3.74468 23.1871 3.98656C22.0382 4.13995 21.4441 4.51752 21.1133 4.7476C25.0367 3.95706 24.7116 5.77411 28.5564 4.8066C28.6012 4.79479 28.6518 4.78299 28.6966 4.78889C28.7974 4.80068 28.8367 4.93049 28.775 5.00128C28.747 5.03667 28.7078 5.07207 28.6798 5.10746C28.1754 5.67971 27.6428 6.30506 25.8493 6.16348C23.742 5.99828 23.6075 4.62371 19.5833 5.67381C23.4841 5.65612 23.4169 7.0012 26.3538 6.60004C26.4547 6.58825 26.5163 6.71804 26.4379 6.78883C26.393 6.83011 26.3425 6.86552 26.3033 6.90092C25.8606 7.26668 25.216 7.71504 24.0054 7.45546C21.4833 6.90092 21.8028 5.8036 18.5577 6.40536C21.0853 6.47615 20.9116 7.50856 23.5066 7.76224C23.5066 7.76224 23.5066 7.76224 23.5121 7.76224C23.6523 7.77994 23.6916 7.97462 23.5739 8.05722C23.4841 8.12212 23.3832 8.1693 23.288 8.2106C21.3937 8.98343 20.5137 6.48205 18.1877 7.04251C19.8523 7.19589 19.7177 7.78583 21.2199 8.2165C21.3823 8.2637 21.3657 8.49379 21.1862 8.51148C19.404 8.70027 19.5609 7.43777 18.4679 7.39057C18.1765 7.37877 17.9075 7.54397 17.7617 7.81534C17.3302 8.60587 17.5039 9.35511 17.4758 9.76218C17.5768 10.1869 17.7282 10.6 17.7337 11.0482C17.7394 11.3609 17.7114 11.6854 17.616 11.9862C17.4366 12.6116 17.2573 13.237 17.0724 13.8683C17.0332 13.998 17.0387 14.1396 17.0835 14.2635C17.1508 14.4523 17.2181 14.6352 17.2462 14.8358C17.3134 15.172 17.2685 15.5201 17.1564 15.8445C16.9211 16.4522 16.6856 17.0598 16.4502 17.6734C16.4054 17.7854 16.3718 17.9035 16.2933 17.9979C16.1757 18.0215 16.1868 17.8622 16.198 17.7854C16.4279 15.5141 16.6464 13.2428 16.8705 10.9715L17.05 10.4288C16.6969 10.7473 16.54 11.1898 16.3101 11.5851C16.2821 11.6795 16.1476 11.6971 16.1196 11.5911C16.142 11.1957 16.1924 10.8005 16.2037 10.4052C16.2372 10.004 16.2317 9.59699 16.3606 9.21352C16.5063 8.82416 16.7865 8.51148 17.0051 8.17521C17.3638 7.69145 17.6328 7.14279 17.8178 6.56464C17.9299 6.21068 18.1654 5.898 18.4679 5.70332C19.5161 5.00718 20.1269 4.40542 21.119 3.61489C22.0325 2.88925 22.7387 2.32289 23.1424 2.15182C24.9863 1.35538 28.691 2.21081 31.8632 0.0397983C31.9416 -0.00740184 32.0425 0.0869826 31.981 0.222669C31.6839 1.01321 31.3308 1.52057 30.49 1.95713C28.0688 3.21373 25.2889 2.41139 24.0502 2.77717Z" fill="#383838"/>
<path d="M16.6969 4.13994C16.6969 4.13994 16.4894 3.75647 15.985 3.70927C15.6039 3.67388 15.4303 3.80957 15.4303 3.80957C15.4303 3.80957 15.8898 3.66798 16.2486 4.00425C16.6072 4.34052 16.411 4.6296 16.411 4.6296C16.411 4.6296 16.8033 4.38772 16.6969 4.13994Z" fill="#383838"/>
<path d="M16.6744 4.0868C16.6744 4.0868 16.411 3.79184 15.8729 3.76823C15.8729 3.76823 16.1924 3.85082 16.2317 4.03371C16.2989 4.38179 16.0075 4.84784 15.9515 5.07203C15.9066 5.27261 16.6744 4.0868 16.6744 4.0868Z" fill="#383838"/>
</g>
</g>
</svg>
